<?xml version="1.0" standalone="no"?>
<!DOCTYPE svg PUBLIC "-//W3C//DTD SVG 20010904//EN"
 "http://www.w3.org/TR/2001/REC-SVG-20010904/DTD/svg10.dtd">
<svg version="1.0" xmlns="http://www.w3.org/2000/svg"
 width="700.000000pt" height="700.000000pt" viewBox="0 0 700.000000 700.000000"
 preserveAspectRatio="xMidYMid meet">
<metadata>
Created by potrace 1.11, written by Peter Selinger 2001-2013
</metadata>
<g transform="translate(0.000000,700.000000) scale(0.100000,-0.100000)"
fill="#000000" stroke="none">
<path d="M4868 5755 c-2 -1 -48 -5 -103 -9 -55 -3 -111 -8 -125 -11 -14 -2
-52 -7 -85 -10 -33 -3 -77 -8 -97 -10 -20 -2 -79 -11 -130 -20 -51 -9 -106
-18 -123 -21 -16 -3 -64 -12 -105 -20 -41 -9 -86 -18 -99 -20 -155 -30 -497
-132 -706 -210 -292 -109 -650 -278 -822 -387 -24 -15 -45 -27 -49 -27 -22 0
-574 -383 -604 -420 -3 -3 -48 -41 -100 -85 -52 -44 -122 -105 -155 -135 -67
-62 -314 -309 -360 -361 -136 -154 -178 -204 -230 -269 -33 -41 -63 -77 -66
-80 -3 -3 -51 -66 -106 -140 -335 -452 -540 -821 -672 -1209 -59 -172 -85
-291 -97 -436 -5 -74 -4 -83 18 -115 43 -63 127 -69 228 -17 59 31 217 145
300 216 82 71 610 599 885 885 381 396 835 846 1055 1046 51 47 103 94 114
105 44 41 183 162 236 205 30 25 62 52 71 60 42 40 344 281 514 411 264 202
691 495 739 507 19 5 19 4 -1 -24 -50 -70 -452 -429 -1113 -992 -384 -329
-399 -342 -463 -426 -40 -53 -46 -85 -21 -110 27 -27 98 -7 474 136 352 134
531 191 643 202 38 4 47 2 47 -11 0 -51 -88 -148 -607 -663 -296 -294 -554
-555 -574 -580 -49 -60 -99 -151 -99 -179 0 -12 11 -33 25 -46 19 -20 34 -25
77 -25 73 0 86 4 488 157 195 74 432 162 525 195 94 33 194 68 224 79 65 23
100 24 107 4 4 -8 0 -46 -7 -83 -27 -132 -14 -155 83 -155 44 0 88 9 148 31
163 58 405 151 465 177 78 35 188 86 199 92 4 3 5 -4 1 -16 -22 -70 -3 -103
67 -115 41 -7 239 -9 278 -2 14 3 52 7 85 10 66 7 83 9 235 31 177 25 341 44
435 51 50 3 94 7 99 7 5 1 10 -3 13 -9 4 -11 -303 -328 -422 -435 -96 -86
-340 -287 -470 -387 -66 -51 -126 -97 -133 -103 -39 -33 -315 -216 -413 -275
-203 -121 -441 -231 -709 -328 -94 -34 -256 -72 -385 -91 -91 -14 -348 -14
-415 -1 -50 10 -16 -10 41 -24 130 -32 378 -32 539 0 30 6 67 13 82 15 223 40
561 161 814 291 359 185 912 559 1180 799 6 5 47 41 90 79 90 79 306 295 406
405 l67 74 98 -8 c131 -10 160 -12 216 -19 26 -3 73 -7 104 -7 48 -2 60 2 75
21 10 12 18 34 18 49 0 50 -28 68 -121 80 -142 19 -174 23 -218 27 -24 2 -46
6 -49 8 -2 3 25 47 60 98 246 355 409 746 473 1133 13 80 14 340 1 400 -3 17
-9 44 -12 60 -22 108 -82 249 -150 351 -145 219 -389 388 -717 495 -116 39
-312 82 -418 94 -30 3 -61 8 -69 10 -8 2 -55 6 -105 10 -49 3 -108 9 -130 11
-38 6 -482 13 -487 9z m582 -199 c72 -6 91 -8 205 -21 100 -12 260 -47 380
-84 52 -15 183 -70 247 -102 110 -56 161 -92 254 -184 119 -117 191 -258 229
-450 6 -32 7 -213 1 -255 -24 -160 -24 -161 -51 -277 -27 -113 -79 -279 -101
-321 -8 -15 -14 -32 -14 -38 0 -5 -8 -28 -19 -50 -10 -21 -36 -75 -56 -119
-92 -196 -331 -566 -382 -593 -10 -6 -36 -12 -58 -16 -22 -3 -65 -10 -95 -15
-30 -5 -68 -12 -85 -15 -52 -9 -518 -84 -555 -90 -393 -59 -464 -65 -494 -43
-16 12 -8 22 88 112 114 106 130 136 81 155 -22 9 -73 -14 -393 -174 -440
-221 -489 -242 -625 -265 -41 -7 -47 -6 -43 8 55 195 49 264 -28 296 -39 17
-88 11 -190 -21 -125 -40 -472 -184 -776 -322 -226 -102 -354 -151 -367 -138
-8 8 98 121 788 841 173 180 337 369 383 443 34 54 56 139 45 170 -25 65 -73
78 -198 52 -145 -30 -318 -90 -536 -185 -169 -74 -218 -94 -246 -99 -29 -6
-32 -5 -18 6 9 7 44 38 79 68 35 30 71 62 80 70 9 8 64 58 121 112 57 53 118
108 134 124 17 15 86 79 155 144 69 64 188 175 265 246 77 71 149 138 161 149
11 11 74 70 139 130 137 128 197 189 255 263 99 126 109 159 66 209 -22 25
-30 28 -88 27 -71 0 -230 -50 -358 -111 -308 -147 -753 -481 -1214 -913 -197
-183 -483 -467 -608 -602 -173 -187 -228 -247 -252 -273 -15 -16 -44 -48 -64
-70 -21 -22 -86 -96 -147 -165 -60 -69 -114 -130 -120 -136 -5 -6 -35 -39 -65
-74 -30 -35 -60 -68 -65 -74 -6 -6 -76 -85 -155 -176 -80 -91 -192 -217 -250
-280 -58 -63 -125 -137 -150 -165 -226 -250 -493 -475 -563 -475 -26 0 -5 52
128 315 389 767 619 1135 990 1580 210 253 494 542 680 692 33 26 67 55 75 63
20 21 254 192 365 267 432 291 996 547 1506 682 109 29 350 84 414 95 17 3 71
12 120 21 50 9 108 18 130 20 22 3 57 8 78 11 20 3 59 7 85 9 185 12 247 17
249 19 5 5 380 -2 453 -8z"/>
</g>
</svg>
